<svg xmlns="http://www.w3.org/2000/svg" width="439.67" height="464.427" viewBox="0 0 439.67 464.427">
  <g id="Contact" transform="translate(0)">
    <path id="Tracé_1" data-name="Tracé 1" d="M185.08,622.8a3.613,3.613,0,0,0,2.619-6.263l-.248-.984.1-.236a9.7,9.7,0,0,1,17.9.067c2.927,7.051,6.654,14.113,7.572,21.568a28.707,28.707,0,0,1-.5,9.872,115.086,115.086,0,0,0,10.469-47.8,111.078,111.078,0,0,0-.689-12.392q-.571-5.06-1.584-10.047a116.419,116.419,0,0,0-23.087-49.342,30.983,30.983,0,0,1-12.886-13.369,23.633,23.633,0,0,1-2.149-6.458c.627.082,1.265.134,1.892.175l.6.031h.074a3.58,3.58,0,0,0,2.94-5.832l-.813-1c-.411-.514-.833-1.018-1.244-1.532a1.776,1.776,0,0,1-.134-.154c-.473-.586-.946-1.162-1.419-1.748a10.352,10.352,0,0,1,3.394-3.28c4.741-2.777,11.281-.854,14.706,3.435s4.083,10.3,2.89,15.662a41.485,41.485,0,0,1-5.738,12.793c.257.329.525.648.782.977a117.173,117.173,0,0,1,12.23,19.375,48.71,48.71,0,0,1,2.894-22.618c2.783-6.715,8-12.37,12.595-18.175,5.519-6.973,16.835-3.93,17.807,4.909l.028.257q-1.024.577-2,1.226a4.9,4.9,0,0,0,1.97,8.915l.1.015a48.767,48.767,0,0,1-1.285,7.291,50.21,50.21,0,0,1-25,31.468c-.4.206-.792.411-1.193.607a119.6,119.6,0,0,1,6.438,30.3,113.433,113.433,0,0,1-.082,18.315l.031-.216A29.974,29.974,0,0,1,235.3,591.3c7.874-6.469,19-8.851,27.494-14.05a5.625,5.625,0,0,1,8.616,5.472q-.017.114-.035.227a32.941,32.941,0,0,0-3.692,1.779q-1.024.578-2,1.226a4.9,4.9,0,0,0,1.976,8.919l.1.015.206.031a48.808,48.808,0,0,1-8.978,14.058,50.254,50.254,0,0,1-36.446,15.991h-.01a119.563,119.563,0,0,1-8.032,23.447H185.8c-.1-.319-.2-.648-.288-.967a32.6,32.6,0,0,0,7.939-.473c-2.129-2.612-4.257-5.245-6.386-7.857a1.8,1.8,0,0,1-.134-.154c-1.08-1.337-2.17-2.663-3.25-4h0a47.749,47.749,0,0,1,1.4-12.164Z" transform="translate(153.284 -328.112)" fill="#f2f2f2"/>
    <path id="Tracé_2" data-name="Tracé 2" d="M167.665,648.8a1.187,1.187,0,0,0,1.19,1.19h437.29a1.19,1.19,0,1,0,0-2.38H168.855a1.187,1.187,0,0,0-1.19,1.19Z" transform="translate(-167.665 -328.112)" fill="#ccc"/>
    <path id="Tracé_3" data-name="Tracé 3" d="M366.4,495.944a11.583,11.583,0,0,1,14.259,10.59l25,8.7-1.582,16.481-35.13-12.782a11.646,11.646,0,0,1-2.546-22.989Z" transform="translate(-155.708 -328.112)" fill="#ffb6b6"/>
    <path id="Tracé_4" data-name="Tracé 4" d="M307.718,543.848c9.94,6.928,27.452,10.472,51.285,10.31a9.53,9.53,0,0,0,7.026-3.064c6.377-6.641,6.128-21.8,6.088-23.264l6.99-26.342c.15-.4,4.019-11.212.083-18.759a12.369,12.369,0,0,0-8.226-6.269c-14.782-3.923-28.678,35.647-30.444,40.875L319.775,513.8l-14.326-.589-14.576-8.045-8.206,19.64,20.308,14.841a25.662,25.662,0,0,0,4.742,4.2Z" transform="translate(-56.283 -328.112)" fill="#2f2e41"/>
    <path id="Tracé_5" data-name="Tracé 5" d="M253.575,654.2l-15.281.714-10.026-58.6,22.553-1.054Z" transform="translate(-42.173 -220.651)" fill="#ffb6b6"/>
    <path id="Tracé_6" data-name="Tracé 6" d="M436.256,753.947l-24.223-.312.484,10.349-22.224,16.935a6.472,6.472,0,0,0,4.225,11.613l28.759-1.345,4.479-10.469,2.414,10.147,10.843-.507Z" transform="translate(-221.421 -328.112)" fill="#2f2e41"/>
    <path id="Tracé_7" data-name="Tracé 7" d="M320.209,528.378l-5.567-14.249,52.311-28.253,26.426,16.61Z" transform="translate(-268.351 -220.651)" fill="#ffb6b6"/>
    <path id="Tracé_8" data-name="Tracé 8" d="M597.425,636.626l-7.457-23.049-9.65,3.771-23.157-15.635a6.472,6.472,0,0,0-9.65,7.719l10.481,26.815,11.352.892-8.84,5.534,3.951,10.111Z" transform="translate(-537.157 -328.112)" fill="#2f2e41"/>
    <path id="Tracé_9" data-name="Tracé 9" d="M547.315,593.431s-6.346,40.516-36.346,43.516-57.654-10.516-57.654-10.516l-84-25.87s-89.346,25.386-104.346,29.386c0,0-10.346-23.484-10-25,3.19-13.958,7.346-4.516,7.346-4.516l95-42s15-4,41,7,95.654,37.516,95.654,37.516Z" transform="translate(-194.941 -328.112)" fill="#2f2e41"/>
    <path id="Tracé_10" data-name="Tracé 10" d="M427.049,590.947s5,48.536-24.22,55.951c-27.78,7.049-66.1-.182-66.1-.182l-45.681-4.769s-2,58.7-2,87.7a220.235,220.235,0,0,1-28,2c-2,0-2.133-1.048-2.133-1.048l-3.873-101.444A31.657,31.657,0,0,1,287.8,595.57q3.235.123,6.786.458c28.1,2.7,62.99-3.034,62.99-3.034Z" transform="translate(-75.021 -328.112)" fill="#2f2e41"/>
    <path id="Tracé_11" data-name="Tracé 11" d="M325.27,520.535s-11.864,71.744-3.846,77.471,19.013,5.75,19.013,5.75l2.557-39.612Z" transform="translate(-54.301 -328.112)" fill="#2f2e41"/>
    <path id="Tracé_12" data-name="Tracé 12" d="M346.989,432.424,331.126,447.5a46.752,46.752,0,0,0-9.2,55.6l7.583,14.46Z" transform="translate(-56.232 -328.112)" fill="#2f2e41"/>
    <path id="Tracé_13" data-name="Tracé 13" d="M306.135,434.958l-21.494,24.483a34.355,34.355,0,0,0-8.362,19.2h0a34.356,34.356,0,0,0,.391,9.683l8.1,44.034,6.089,63.591s47,14.242,51.814-7.75S306.135,434.958,306.135,434.958Z" transform="translate(-11.831 -328.112)" fill="#f2ad0d"/>
    <path id="Tracé_14" data-name="Tracé 14" d="M298.59,601.923c30.9-5.149,38.467-6.171,38.939-6.352l.472-.18-3.1-18.584-13.078-32.135c-.849-10.512-6.358-24.754-3.206-36.194,9.161-33.257-5.723-80.253-12.529-83.853l-18.869-12.37-6.624,6.073L269.114,434.4c-9.449,42.091-15.975,81.323-15.658,83.721l5.832,41.207,6.872,15.807C287.008,585.2,272.989,606.19,298.59,601.923Z" transform="translate(15.889 -328.112)" fill="#2f2e41"/>
    <path id="Tracé_15" data-name="Tracé 15" d="M427.129,571.693l-48.514-12.98-4.272-1.013-3.046-.723-3.55-.839-.028-.007a2.013,2.013,0,0,0-1.507.251l-18.014,21.6a1.589,1.589,0,0,0-.424.381.712.712,0,0,0-.128.135,2.056,2.056,0,0,0,1.159,3.21l72.378,16.652a2.039,2.039,0,0,0,2.049-.724l.734-.952,4-19.284.285-2.5a2,2,0,0,0,.375-.788,2.027,2.027,0,0,0-1.5-2.414Z" transform="translate(-168.594 -328.112)" fill="#e6e6e6"/>
    <path id="Tracé_16" data-name="Tracé 16" d="M428.677,596.683l-.739.955a2.038,2.038,0,0,1-2.044.724l-72.375-16.656a2.052,2.052,0,0,1-1.156-3.208.611.611,0,0,1,.126-.135Z" transform="translate(-173.305 -328.112)" opacity="0.17"/>
    <path id="Tracé_17" data-name="Tracé 17" d="M427.1,556l1.309-92.265a2.106,2.106,0,0,0-.467-1.542l-9.274-19.3-.963-1.17a2.132,2.132,0,0,0-1.425-.754l-2.019-.188a2.107,2.107,0,0,0-2.3,1.891h0L410.141,540.3v.007l-.9,9.4-1.067,11.162v.014l-1.666,17.366a2.062,2.062,0,0,0,.557,1.637,2.091,2.091,0,0,0,1.585.678l1.313-.026a2.139,2.139,0,0,0,1.364-.538l.735-.66.34-.31,14.007-21.653A2.094,2.094,0,0,0,427.1,556Z" transform="translate(-227.579 -328.112)" fill="#e6e6e6"/>
    <path id="Tracé_18" data-name="Tracé 18" d="M428.422,442.889l-6.267,136.136-.343.306-.732.658a2.133,2.133,0,0,1-1.364.538l-1.315.026a2.115,2.115,0,0,1-2.141-2.314l5.459-135.57a2.108,2.108,0,0,1,2.3-1.9l2.023.194a2.078,2.078,0,0,1,1.418.754Z" transform="translate(-237.338 -328.112)" opacity="0.17"/>
    <path id="Tracé_19" data-name="Tracé 19" d="M242.382,340.929l8.481,20.935-1.049,62.627-9.182,13.279Z" transform="translate(-51.825 -220.651)" fill="#f2ad0d"/>
    <path id="Tracé_20" data-name="Tracé 20" d="M359.049,571.141a1.821,1.821,0,0,1,1.252,2.249l-3.736,15.571-3.5-1L356.8,572.39a1.821,1.821,0,0,1,2.249-1.252Z" transform="translate(-106.101 -328.112)" fill="#2f2e41"/>
    <path id="Tracé_21" data-name="Tracé 21" d="M363.115,569.147a1.821,1.821,0,0,1,1.252,2.249l-.8,2.8-3.5-1,.8-2.8a1.821,1.821,0,0,1,2.249-1.252Z" transform="translate(-117.169 -328.112)" fill="#2f2e41"/>
    <path id="Tracé_22" data-name="Tracé 22" d="M370.117,567.153a1.821,1.821,0,0,1,1.252,2.249l-.8,2.8-3.5-1,.8-2.8a1.821,1.821,0,0,1,2.248-1.249Z" transform="translate(-131.173 -328.112)" fill="#2f2e41"/>
    <path id="Tracé_23" data-name="Tracé 23" d="M377.119,565.16a1.821,1.821,0,0,1,1.252,2.249l-.8,2.8-3.5-1,.8-2.8a1.821,1.821,0,0,1,2.249-1.252Z" transform="translate(-145.177 -328.112)" fill="#2f2e41"/>
    <path id="Tracé_24" data-name="Tracé 24" d="M384.121,563.166a1.821,1.821,0,0,1,1.252,2.249l-.8,2.8-3.5-1,.8-2.8a1.821,1.821,0,0,1,2.248-1.249Z" transform="translate(-159.181 -328.112)" fill="#2f2e41"/>
    <path id="Tracé_25" data-name="Tracé 25" d="M391.126,561.172a1.821,1.821,0,0,1,1.252,2.249l-.8,2.8-3.5-1,.8-2.8a1.821,1.821,0,0,1,2.248-1.249Z" transform="translate(-173.191 -328.112)" fill="#2f2e41"/>
    <path id="Tracé_26" data-name="Tracé 26" d="M398.126,559.178a1.821,1.821,0,0,1,1.252,2.249l-.8,2.8-3.5-1,.8-2.8a1.821,1.821,0,0,1,2.249-1.252Z" transform="translate(-187.191 -328.112)" fill="#2f2e41"/>
    <path id="Tracé_27" data-name="Tracé 27" d="M405.126,557.185a1.821,1.821,0,0,1,1.252,2.249l-.8,2.8-3.5-1,.8-2.8a1.821,1.821,0,0,1,2.249-1.252Z" transform="translate(-201.191 -328.112)" fill="#2f2e41"/>
    <path id="Tracé_28" data-name="Tracé 28" d="M364.585,575.532a1.821,1.821,0,0,1,1.252,2.249l-.8,2.8-3.5-1,.8-2.8A1.821,1.821,0,0,1,364.585,575.532Z" transform="translate(-120.109 -328.112)" fill="#2f2e41"/>
    <path id="Tracé_29" data-name="Tracé 29" d="M371.586,573.539a1.821,1.821,0,0,1,1.252,2.249l-.8,2.8-3.5-1,.8-2.8a1.821,1.821,0,0,1,2.248-1.249Z" transform="translate(-134.111 -328.112)" fill="#2f2e41"/>
    <path id="Tracé_30" data-name="Tracé 30" d="M378.588,571.545a1.821,1.821,0,0,1,1.252,2.249l-.8,2.8-3.5-1,.8-2.8a1.821,1.821,0,0,1,2.248-1.249Z" transform="translate(-148.115 -328.112)" fill="#2f2e41"/>
    <path id="Tracé_31" data-name="Tracé 31" d="M385.59,569.551a1.821,1.821,0,0,1,1.252,2.249l-.8,2.8-3.5-1,.8-2.8a1.821,1.821,0,0,1,2.249-1.252Z" transform="translate(-162.119 -328.112)" fill="#2f2e41"/>
    <path id="Tracé_32" data-name="Tracé 32" d="M392.592,567.557a1.821,1.821,0,0,1,1.252,2.249l-.8,2.8-3.5-1,.8-2.8a1.821,1.821,0,0,1,2.249-1.252Z" transform="translate(-176.123 -328.112)" fill="#2f2e41"/>
    <path id="Tracé_33" data-name="Tracé 33" d="M399.594,565.564a1.821,1.821,0,0,1,1.252,2.249l-.8,2.8-3.5-1,.8-2.8a1.821,1.821,0,0,1,2.249-1.252Z" transform="translate(-190.127 -328.112)" fill="#2f2e41"/>
    <path id="Tracé_34" data-name="Tracé 34" d="M406.6,563.57a1.821,1.821,0,0,1,1.252,2.249l-.8,2.8-3.5-1,.8-2.8a1.821,1.821,0,0,1,2.249-1.252Z" transform="translate(-204.131 -328.112)" fill="#2f2e41"/>
    <path id="Tracé_35" data-name="Tracé 35" d="M366.054,581.917a1.821,1.821,0,0,1,1.252,2.249l-.8,2.8-3.5-1,.8-2.8a1.821,1.821,0,0,1,2.248-1.249Z" transform="translate(-123.047 -328.112)" fill="#2f2e41"/>
    <path id="Tracé_36" data-name="Tracé 36" d="M373.056,579.924a1.821,1.821,0,0,1,1.252,2.249l-.8,2.8-3.5-1,.8-2.8a1.821,1.821,0,0,1,2.249-1.252Z" transform="translate(-137.051 -328.112)" fill="#2f2e41"/>
    <path id="Tracé_37" data-name="Tracé 37" d="M380.058,577.93a1.821,1.821,0,0,1,1.252,2.249l-.8,2.8-3.5-1,.8-2.8a1.821,1.821,0,0,1,2.248-1.249Z" transform="translate(-151.055 -328.112)" fill="#2f2e41"/>
    <path id="Tracé_38" data-name="Tracé 38" d="M387.059,575.936a1.821,1.821,0,0,1,1.252,2.249l-.8,2.8-3.5-1,.8-2.8a1.821,1.821,0,0,1,2.248-1.249Z" transform="translate(-165.057 -328.112)" fill="#2f2e41"/>
    <path id="Tracé_39" data-name="Tracé 39" d="M394.061,573.943a1.821,1.821,0,0,1,1.252,2.249l-.8,2.8-3.5-1,.8-2.8a1.821,1.821,0,0,1,2.248-1.249Z" transform="translate(-179.061 -328.112)" fill="#2f2e41"/>
    <path id="Tracé_40" data-name="Tracé 40" d="M401.063,571.949a1.821,1.821,0,0,1,1.252,2.249l-.8,2.8-3.5-1,.8-2.8a1.821,1.821,0,0,1,2.248-1.249Z" transform="translate(-193.065 -328.112)" fill="#2f2e41"/>
    <path id="Tracé_41" data-name="Tracé 41" d="M408.065,569.955a1.821,1.821,0,0,1,1.252,2.249l-.8,2.8-3.5-1,.8-2.8a1.821,1.821,0,0,1,2.249-1.252Z" transform="translate(-207.069 -328.112)" fill="#2f2e41"/>
    <path id="Tracé_42" data-name="Tracé 42" d="M335.805,557.871a11.583,11.583,0,0,1,17.655-1.937L377.7,545.306l10.052,13.157-34.445,14.529a11.646,11.646,0,0,1-17.5-15.119Z" transform="translate(-114.238 -328.112)" fill="#ffb6b6"/>
    <path id="Tracé_43" data-name="Tracé 43" d="M314.307,565.271c12-1.683,27.246-11,44.605-27.329a9.53,9.53,0,0,0,3.066-7.026c.157-9.206-10.337-20.148-11.362-21.194l-12.8-24.064c-.164-.4-4.681-10.952-12.7-13.807a12.369,12.369,0,0,0-10.294,1c-13.5,7.18,3.227,45.637,5.489,50.671L302.7,535.044l-10.9,9.313-16.157,4.018,7.345,19.978,24.981-2.936a25.664,25.664,0,0,0,6.333-.147Z" transform="translate(-30.29 -328.112)" fill="#2f2e41"/>
    <ellipse id="Ellipse_1" data-name="Ellipse 1" cx="30.782" cy="30.111" rx="30.782" ry="30.111" transform="translate(264.019 85.701) rotate(-96.832)" fill="#ffb6b6"/>
    <path id="Tracé_44" data-name="Tracé 44" d="M322.69,356.829c-5.792-5.317-9.15-12.891-14.019-19.133s-12.66-11.419-19.941-8.958c-5.019,1.7-8.454,6.716-9.861,12.023s-1.115,10.937-.813,16.452c-1.223-11.26-9.938-21.274-20.573-23.64s-22.369,3.1-27.7,12.9a15.7,15.7,0,0,0-20.75,2.045c-5.122,5.814-5.222,15.724-.22,21.757s14.43,7.375,20.7,2.945l2.631,1.9c-.775,4.826,2.472,10.027,7.032,11.263,3.7,1,8.647.168,10.41,3.711,1.232,2.475-.161,5.442-1.756,7.649s-3.526,4.519-3.417,7.3c.164,4.189,4.8,6.581,8.8,6.99,9.651.985,19.557-4.617,23.979-13.559q.128-.259.283-.521a36.55,36.55,0,0,0,3.975-28.623c-.534-1.88-.4-3.343.869-3.955,5.477-2.647,21.975-.446,27.264,2.7s9.759,7.6,14.9,11.006,11.452,5.747,17.247,3.958c4.641-1.433,8.264-5.361,10.481-9.841s3.2-9.51,4.022-14.49C346.469,366.015,331.807,365.2,322.69,356.829Z" transform="translate(45.976 -328.112)" fill="#2f2e41"/>
  </g>
</svg>
